# xmcd
#
# Track frame offsets:
#	150
#	9058
#	30620
#	40104
#	51361
#	64332
#	78863
#	90224
#	101818
#	113246
#	128753
#	146895
#	159808
#	170983
#	182849
#	195525
#	206594
#	221272
#	234228
#	249151
#
# Disc length: 3539 seconds
#
# Revision: 0
# Processed by: cddbd v1.5.2PL0 Copyright (c) Steve Scherf et al.
# Submitted via: EasyCDDAExtractor 10.0.3.1
#
DISCID=030dd114
DTITLE=Chris Dedoux - 20 Origionals
DYEAR=1900
DGENRE=Country
TTITLE0=Copenhagen
TTITLE1=Photo Finish
TTITLE2=Mighty Lucky Man
TTITLE3=Forth Of July Rodeos
TTITLE4=Fine Ad Wine
TTITLE5=Cabello Diabelo
TTITLE6=I've Got To Be A Rodeo Man
TTITLE7=The Littlest Cowboy Rides Again
TTITLE8=All Around Cowboy
TTITLE9=Bad Brahman Bull
TTITLE10=Paint Me Back Home In Wyoming
TTITLE11=Lean, Mean and Hungery
TTITLE12=Ten Seconds In The Saddle
TTITLE13=Freedom Ain't Free
TTITLE14=He Rides The Wild Horses
TTITLE15=So You Want To Be A Cowboy
TTITLE16=I Used To Be A Cowboy
TTITLE17=Tennesee Stuc
TTITLE18=It Ain't The Years, It's The Miles
TTITLE19=Running Through The Rain
EXTD=
EXTT0=
EXTT1=
EXTT2=
EXTT3=
EXTT4=
EXTT5=
EXTT6=
EXTT7=
EXTT8=
EXTT9=
EXTT10=
EXTT11=
EXTT12=
EXTT13=
EXTT14=
EXTT15=
EXTT16=
EXTT17=
EXTT18=
EXTT19=
PLAYORDER=
